<?xml version="1.0" encoding="UTF-8"?>
<svg version="1.1" viewBox="0 0 397.2 86" xmlns="http://www.w3.org/2000/svg">
<g fill="#0D0C22">
<path d="m141.8 45.9c1.6 2 2.4 4.3 2.4 7 0 3.9-1.3 6.9-3.9 9.1s-6.3 3.3-11.1 3.3h-21.2v-45.4h20.6c4.6 0 8.2 1 10.7 3s3.8 4.9 3.8 8.6c0 2.7-0.7 5-2.2 6.8s-3.4 3-5.7 3.6c2.8 0.6 5 2 6.6 4zm-22.8-7.5h7.2c3.8 0 5.7-1.6 5.7-4.9s-1.9-4.9-5.8-4.9h-7.1v9.8zm13.9 12.9c0-1.6-0.5-2.9-1.6-3.8s-2.6-1.4-4.6-1.4h-7.7v10.2h7.8c4.1 0 6.1-1.6 6.1-5z"/>
<path d="m175.6 31.2c2.8 1.5 5 3.6 6.6 6.4s2.4 6 2.4 9.8c0 3.7-0.8 7-2.4 9.8s-3.8 4.9-6.6 6.4-6 2.2-9.5 2.2-6.7-0.7-9.6-2.2c-2.8-1.5-5-3.6-6.6-6.4s-2.4-6-2.4-9.8c0-3.7 0.8-7 2.4-9.8s3.8-4.9 6.6-6.4 6-2.2 9.6-2.2 6.7 0.7 9.5 2.2zm-14.8 9.6c-1.4 1.5-2.2 3.7-2.2 6.6s0.7 5.1 2.2 6.5c1.4 1.5 3.2 2.2 5.3 2.2s3.9-0.7 5.3-2.2 2.1-3.7 2.1-6.5c0-2.9-0.7-5.1-2.1-6.6s-3.2-2.3-5.3-2.3-3.9 0.7-5.3 2.3z"/>
<path d="m212.1 65.3-7.3-10.3-6 10.2h-12.1l11.9-18.7-12.3-17.1h12.3l7.3 10.1 6-10.1h12.1l-12.1 18.2 12.6 17.6-12.4 0.1z"/>
<path d="m228.7 15.2c1.2-1.1 2.8-1.6 4.8-1.6s3.6 0.5 4.8 1.6 1.8 2.5 1.8 4.1-0.6 3-1.8 4.1-2.8 1.6-4.8 1.6-3.6-0.5-4.8-1.6-1.8-2.4-1.8-4.1c0-1.6 0.6-3 1.8-4.1zm10.2 14.2v35.8h-11v-35.8h11z"/>
<path d="m273.6 32.8c3.1 2.5 5.1 6 5.9 10.5h-11.6c-0.3-1.5-1.1-2.7-2.1-3.6-1.1-0.9-2.4-1.3-4-1.3-1.9 0-3.5 0.8-4.8 2.3-1.2 1.5-1.9 3.7-1.9 6.6s0.6 5.1 1.9 6.6c1.2 1.5 2.8 2.3 4.8 2.3 1.6 0 3-0.4 4-1.3 1.1-0.9 1.8-2.1 2.1-3.6h11.6c-0.8 4.5-2.8 8-5.9 10.5s-7 3.8-11.6 3.8c-3.5 0-6.6-0.7-9.3-2.2s-4.8-3.6-6.4-6.4c-1.5-2.8-2.3-6-2.3-9.8s0.8-7 2.3-9.8 3.6-4.9 6.4-6.4c2.7-1.5 5.9-2.2 9.4-2.2 4.5 0.2 8.4 1.5 11.5 4z"/>
<path d="m310.9 31.2c2.8 1.5 5 3.6 6.6 6.4s2.4 6 2.4 9.8c0 3.7-0.8 7-2.4 9.8s-3.8 4.9-6.6 6.4-6 2.2-9.5 2.2-6.7-0.7-9.6-2.2c-2.8-1.5-5-3.6-6.6-6.4s-2.4-6-2.4-9.8c0-3.7 0.8-7 2.4-9.8s3.8-4.9 6.6-6.4 6-2.2 9.6-2.2c3.5 0 6.7 0.7 9.5 2.2zm-14.9 9.6c-1.4 1.5-2.1 3.7-2.1 6.6s0.7 5.1 2.1 6.5 3.2 2.2 5.3 2.2 3.9-0.7 5.3-2.2 2.1-3.7 2.1-6.5c0-2.9-0.7-5.1-2.1-6.6s-3.2-2.3-5.3-2.3-3.8 0.7-5.3 2.3z"/>
<path d="m357.5 33.2c2.4 2.7 3.6 6.5 3.6 11.3v20.8h-11v-19.6c0-2.4-0.6-4.3-1.9-5.6s-2.9-2-5-2c-2.2 0-4 0.7-5.3 2.1s-2 3.4-2 6v19h-11v-35.8h11v6.6c1-2.1 2.6-3.8 4.6-5.1 2-1.2 4.4-1.9 7.2-1.9 4.1 0 7.4 1.4 9.8 4.2z"/>
<path d="m391.6 32.4c2.7 2.3 4.4 5.3 5.1 9h-10.3c-0.3-1.5-1-2.6-2-3.4s-2.4-1.3-3.9-1.3c-1.2 0-2.2 0.3-2.8 0.8s-1 1.3-1 2.3c0 1.1 0.6 1.9 1.8 2.5s3 1.1 5.6 1.7c2.7 0.6 5 1.3 6.7 2 1.8 0.7 3.3 1.7 4.6 3.2s1.9 3.5 1.9 6c0 2.1-0.6 3.9-1.7 5.5s-2.7 2.8-4.8 3.7-4.6 1.3-7.4 1.3c-4.8 0-8.7-1.1-11.6-3.2s-4.7-5.2-5.3-9.2h10.5c0.2 1.5 0.8 2.7 2 3.5 1.1 0.8 2.6 1.2 4.4 1.2 1.2 0 2.2-0.3 2.8-0.9s1-1.3 1-2.3c0-1.2-0.6-2.1-1.8-2.7-1.2-0.5-3.1-1.1-5.7-1.7-2.7-0.6-4.8-1.2-6.5-1.8s-3.2-1.7-4.4-3.1-1.9-3.4-1.9-5.9c0-3.2 1.2-5.8 3.7-7.8s5.9-3 10.3-3c4.4 0.2 8 1.3 10.7 3.6z"/>
</g>
<path d="m4.7 21.2c-0.9 1.4-1.4 3-1.4 4.6v34.8c0 2.4 1.3 4.7 3.4 5.9l31.5 17.9c2.6 1.5 5.8-0.4 5.8-3.4v-37.3l-39.3-22.5z" fill="#FA378E"/>
<path d="M44,43.7l34.2-17.2c2.8-1.4,2.9-5.3,0.2-6.8L47.1,1.8c-2-1.1-4.4-1.2-6.4-0.2L8.1,18.1  c-1.4,0.7-2.6,1.8-3.5,3.1L44,43.7z" fill="#33DBE3"/>
</svg>
