<?xml version="1.0" encoding="UTF-8" standalone="no"?>
<!DOCTYPE svg PUBLIC "-//W3C//DTD SVG 1.1//EN" "http://www.w3.org/Graphics/SVG/1.1/DTD/svg11.dtd">
<svg width="120px" height="110px" version="1.1" xmlns="http://www.w3.org/2000/svg" xmlns:xlink="http://www.w3.org/1999/xlink" xml:space="preserve" xmlns:serif="http://www.serif.com/" style="fill-rule:evenodd;clip-rule:evenodd;stroke-linejoin:round;stroke-miterlimit:1.41421;">
    <g id="Artwork">
        <g>
            <circle cx="59" cy="55" r="44.957" style="fill:rgb(255,69,0);"/>
            <path d="M88.989,55C88.989,51.352 86.039,48.455 82.444,48.455C80.674,48.455 79.064,49.152 77.884,50.279C73.378,47.06 67.208,44.968 60.341,44.7L63.345,30.644L73.109,32.736C73.217,35.204 75.255,37.189 77.777,37.189C80.352,37.189 82.444,35.097 82.444,32.521C82.444,29.946 80.352,27.854 77.777,27.854C75.953,27.854 74.343,28.927 73.592,30.483L62.702,28.176C62.38,28.122 62.058,28.176 61.843,28.337C61.575,28.498 61.414,28.766 61.361,29.088L58.034,44.753C51.06,44.968 44.783,47.06 40.223,50.333C39.043,49.206 37.433,48.509 35.663,48.509C32.015,48.509 29.118,51.459 29.118,55.054C29.118,57.736 30.727,59.989 32.981,61.009C32.873,61.652 32.82,62.296 32.82,62.994C32.82,73.079 44.569,81.288 59.054,81.288C73.539,81.288 85.288,73.133 85.288,62.994C85.288,62.35 85.234,61.652 85.127,61.009C87.38,59.989 88.989,57.682 88.989,55ZM44.032,59.667C44.032,57.092 46.124,55 48.7,55C51.275,55 53.367,57.092 53.367,59.667C53.367,62.242 51.275,64.335 48.7,64.335C46.124,64.388 44.032,62.242 44.032,59.667ZM70.159,72.06C66.94,75.279 60.824,75.494 59.054,75.494C57.23,75.494 51.114,75.225 47.948,72.06C47.466,71.577 47.466,70.826 47.948,70.343C48.431,69.861 49.182,69.861 49.665,70.343C51.704,72.382 55.996,73.079 59.054,73.079C62.112,73.079 66.457,72.382 68.442,70.343C68.925,69.861 69.676,69.861 70.159,70.343C70.588,70.826 70.588,71.577 70.159,72.06ZM69.3,64.388C66.725,64.388 64.633,62.296 64.633,59.721C64.633,57.146 66.725,55.054 69.3,55.054C71.876,55.054 73.968,57.146 73.968,59.721C73.968,62.242 71.876,64.388 69.3,64.388Z" style="fill:white;fill-rule:nonzero;"/>
        </g>
    </g>
</svg>
